<svg xmlns="http://www.w3.org/2000/svg" width="940" height="210" viewBox="0 0 940 210" role="img" aria-labelledby="title desc">
<title id="title">OpenDesign — AT WORK. Conceptual illustration.</title><desc id="desc">Original illustration by Heggria. Workflow animation is a schematic, not a live run.</desc>
<defs>
<radialGradient id="glow"><stop stop-color="#7650ad" stop-opacity=".19"/><stop offset="1" stop-color="#7650ad" stop-opacity="0"/></radialGradient>
<pattern id="dots" width="24" height="24" patternUnits="userSpaceOnUse"><circle cx="1" cy="1" r=".7" fill="#70617e" opacity=".2"/></pattern>
</defs>
<style>text{font-family:Arial,Helvetica,sans-serif;fill:#30263f}.mono{font-family:ui-monospace,SFMono-Regular,Consolas,monospace}.muted{fill:#70617e}</style>
<rect width="940" height="210" rx="24" fill="#f5f2fa"/>
<rect x="460" y="0" width="540" height="210" fill="url(#dots)"/><text x="32" y="40" font-size="12" class="mono muted" letter-spacing="1.5">02 / AT WORK</text><text x="30" y="110" font-size="50" class="" font-weight="600" letter-spacing="-2">OpenDesign</text><text x="32" y="160" font-size="18" class="muted" >Design meets engineering.</text><rect x="552" y="37" width="150" height="127" rx="10" fill="#ffffff" stroke="#d6cde1"/><rect x="706" y="59" width="143" height="99" rx="10" fill="#ffffff" stroke="#d6cde1"/><rect x="572" y="58" width="111" height="68" rx="7" fill="#7650ad" opacity=".15"/><circle cx="646" cy="92" r="21" fill="#a4517d" opacity=".7"/><path d="M571 145H656M724 81H812M724 100H792M724 134H764" stroke="#70617e" stroke-width="5" stroke-linecap="round"/><rect x="551" y="36" width="153" height="130" rx="0" fill="none" stroke="#7650ad" stroke-dasharray="4 5"/><rect x="548" y="33" width="6" height="6" fill="#7650ad"/><rect x="701" y="33" width="6" height="6" fill="#7650ad"/><rect x="548" y="163" width="6" height="6" fill="#7650ad"/><rect x="701" y="163" width="6" height="6" fill="#7650ad"/>
</svg>
